<?xml version="1.0" encoding="utf-8"?>
<!-- Generator: Adobe Illustrator 27.0.0, SVG Export Plug-In . SVG Version: 6.00 Build 0)  -->
<svg version="1.1" id="Layer_1" xmlns="http://www.w3.org/2000/svg" xmlns:xlink="http://www.w3.org/1999/xlink" x="0px" y="0px"
	 viewBox="0 0 1124.3 264.7" style="enable-background:new 0 0 1124.3 264.7;" xml:space="preserve">
<style type="text/css">
	.st0{fill-rule:evenodd;clip-rule:evenodd;fill:#06A64F;}
	.st1{fill:#231F20;}
</style>
<path class="st0" d="M117.5,133.4l-4.2,13.3c-1.5,4.9-5.2,8.1-9.3,8.1H77.1c-4.1,0-7.8-3.2-9.3-8.1l-4.2-13.3H9.9L27,198.9
	c0.5,1.8,1.8,2.9,3.2,2.9h120.7c1.4,0,2.7-1.2,3.2-2.9l17.1-65.5L117.5,133.4L117.5,133.4z M110.2,133.4H70.8l3.2,10.1
	c0.5,1.6,1.8,2.7,3.1,2.7h26.8c1.4,0,2.6-1.1,3.1-2.7L110.2,133.4z M181.1,103.5c0-2.4-1.5-4.3-3.4-4.3H3.3c-1.9,0-3.3,1.9-3.3,4.3
	v17.1c0,2.4,1.5,4.3,3.3,4.3h174.4c1.9,0,3.4-1.9,3.4-4.3V103.5z M10.1,90.7h160.8l-17-48.8c-0.5-1.5-1.7-2.5-3.1-2.5H30.2
	c-1.3,0-2.5,1-3.1,2.5L10.1,90.7L10.1,90.7L10.1,90.7z"/>
<g>
	<path class="st1" d="M314.6,154.4l-7.3,49.3H166.8v-7l19.4-4.7c4.9-1.2,7.3-4.4,7.3-9.4v-122c0-5.2-2.4-8.3-7.3-9.4l-19.4-4.7v-7
		h80v7l-19.4,4.7c-4.9,1.1-7.3,4.2-7.3,9.4v122c0,3.4,1,5.9,3,7.3s4.2,2.1,6.7,2.1h36.4c7.3,0,13-1.4,17.3-4.1
		c4.3-2.7,8.2-7.6,11.8-14.7l9.7-18.8L314.6,154.4L314.6,154.4z"/>
	<path class="st1" d="M342.5,138.9v0.2c0,18.1,3.6,31.3,10.8,39.4c7.2,8.1,16.5,12.2,28,12.2c3.7,0,7.6-0.7,11.6-2
		c4-1.3,7.9-3,11.5-5c3.6-2,6.4-4,8.4-5.9l4.9,4.7c-2.8,3.4-6.3,7.1-10.7,10.9c-4.4,3.8-9.6,7.1-15.8,9.7c-6.1,2.7-13.5,4-22.1,4
		c-9,0-17.7-2-25.8-6.1c-8.2-4.1-14.8-10.4-19.9-19s-7.6-19.7-7.6-33.3c0-12.7,2.6-23.6,7.9-32.7c5.2-9.2,12-16.2,20.4-21.1
		c8.3-4.9,17.1-7.4,26.3-7.4c11,0,20,2.3,27.1,6.9s12.4,10.5,16,17.6c3.5,7.1,5.3,14.4,5.3,21.9v4.9L342.5,138.9L342.5,138.9z
		 M343,128.6h49.2c0.3-9.8-1.1-17.6-4.2-23.2c-3.1-5.6-9-8.4-17.6-8.4c-7.4,0-13.6,2.4-18.4,7.3C347.1,109.1,344.1,117.2,343,128.6
		L343,128.6z"/>
	<path class="st1" d="M424.9,203.7v-5.9c6.1-1.2,10.5-3.1,13.1-5.6c2.6-2.5,3.9-6.1,3.9-10.8v-80.9h-14.5v-5.9
		c6.1-1.2,10.7-3.2,13.7-6c3-2.7,4.5-6.5,4.5-11.4s0.9-9.9,2.5-15.7c1.7-5.8,4.6-11.3,8.6-16.7c4-5.3,9.4-9.7,16.1-13.1
		c6.7-3.4,15-5.2,24.9-5.2c6.3,0,11.6,1.1,16,3.4c4.4,2.3,6.5,5.4,6.5,9.5s-1.5,7.2-4.5,10c-3,2.7-5.8,4.1-8.4,4.1
		c-2.4,0-4.5-0.7-6.2-2.1c-1.7-1.4-3.3-3-4.9-4.9s-3.2-3.5-5.1-4.9s-4.2-2.1-6.9-2.1s-5.5,1.1-8.4,3.3c-2.8,2.2-5.2,5.9-7,11
		s-2.8,12.1-2.8,20.9v16.4h20.6v9.4h-20.6v80.9c0,4.7,1.3,8.3,4,10.8s7,4.4,13,5.6v5.9L424.9,203.7L424.9,203.7z"/>
	<path class="st1" d="M529.9,65.3v25.8h31.5v9.4h-31.5v67.3c0,10,1.7,17.3,5,21.9c3.3,4.6,7.7,6.9,13.2,6.9h13.3v7
		c-4.8,1.7-9.3,2.9-13.5,3.6c-4.1,0.7-8.9,1.1-14.4,1.1c-7.9,0-14.5-2.7-19.9-8c-5.3-5.3-8-13.1-8-23.2v-76.7h-19.4v-7
		c8.9-2.3,15.5-5,20-8c4.4-3,7.8-6.3,10.1-10c2.3-3.7,4.4-7.9,6.3-12.5L529.9,65.3L529.9,65.3z"/>
	<path class="st1" d="M617.9,207.2c-9.2,0-18.2-2.1-26.9-6.3s-15.9-10.7-21.6-19.4c-5.7-8.7-8.5-19.7-8.5-33
		c0-11.4,2.4-21.7,7.3-30.8c4.8-9.2,11.8-16.5,21-21.9c9.1-5.5,19.9-8.2,32.4-8.2c9.7,0,18.9,2.1,27.5,6.3s15.7,10.7,21.2,19.3
		c5.5,8.7,8.2,19.7,8.2,33c0,12.5-2.5,23.3-7.6,32.5s-12.2,16.2-21.2,21.1C640.6,204.7,630,207.2,617.9,207.2L617.9,207.2z
		 M620.3,197.8c6.6,0,12-1.5,16.2-4.5c4.2-3,7.4-6.8,9.6-11.6c2.2-4.8,3.7-10,4.5-15.6c0.8-5.6,1.2-11.1,1.2-16.4
		c0-12.5-1.5-22.6-4.6-30.4s-7.1-13.4-12.1-17c-5-3.6-10.3-5.4-16-5.4c-6.3,0-11.5,1.5-15.6,4.6s-7.4,7-9.7,12
		c-2.3,4.9-4,10.2-4.8,15.7c-0.9,5.6-1.3,10.8-1.3,15.8c0,12.8,1.5,23.1,4.6,30.9c3.1,7.7,7.1,13.3,12.1,16.8
		S614.7,197.8,620.3,197.8L620.3,197.8z"/>
	<path class="st1" d="M730.1,208.4L688.9,111c-3.4-8.3-8.7-13-15.8-14.1v-5.9h58.2v5.9c-3.6,0.6-6.9,2-9.9,4s-4.6,4.2-4.6,6.6
		c0,3.4,0.6,6.7,1.9,9.8c1.3,3.1,3.1,7.7,5.3,13.6l20.4,51.1l21.3-51.1c2.4-5.8,4.2-10.3,5.2-13.5c1-3.2,1.6-6.5,1.6-10
		c0-2.3-1.5-4.5-4.5-6.6c-3-2-6.3-3.4-10.1-4v-5.9h46.1v5.9c-3.6,0.6-6.8,2.1-9.8,4.5s-5.4,5.6-7.2,9.6l-41.7,97.3H730.1
		L730.1,208.4z"/>
	<path class="st1" d="M824.7,138.9v0.2c0,18.1,3.6,31.3,10.8,39.4c7.2,8.1,16.5,12.2,28,12.2c3.7,0,7.6-0.7,11.6-2
		c4-1.3,7.9-3,11.5-5s6.4-4,8.4-5.9l4.8,4.7c-2.8,3.4-6.3,7.1-10.7,10.9c-4.4,3.8-9.6,7.1-15.8,9.7c-6.1,2.7-13.5,4-22.1,4
		c-9,0-17.7-2-25.8-6.1c-8.2-4.1-14.8-10.4-19.9-19s-7.6-19.7-7.6-33.3c0-12.7,2.6-23.6,7.9-32.7c5.2-9.2,12-16.2,20.4-21.1
		c8.3-4.9,17.1-7.4,26.3-7.4c11,0,20,2.3,27.2,6.9c7.1,4.6,12.4,10.5,16,17.6c3.5,7.1,5.3,14.4,5.3,21.9v4.9L824.7,138.9
		L824.7,138.9z M825.2,128.6h49.2c0.3-9.8-1.1-17.6-4.2-23.2c-3.2-5.6-9-8.4-17.6-8.4c-7.4,0-13.6,2.4-18.4,7.3
		C829.3,109.1,826.3,117.2,825.2,128.6L825.2,128.6z"/>
	<path class="st1" d="M904.7,203.7v-5.9c6.1-1.2,10.5-3.1,13.1-5.6c2.6-2.5,3.9-6.1,3.9-10.8V111l-14.5-7v-4.7l30.5-12.9l7.3,2.3
		v18.8h1.9c3.4-2.7,6.9-5.4,10.4-8.3c3.5-2.9,7.3-5.3,11.2-7.4c3.9-2,7.8-3.1,11.9-3.1c4.5,0,8.2,1,10.9,2.9c2.8,2,4.7,4.3,5.9,7.2
		s1.8,5.5,1.8,8c0,1.2-0.5,3.1-1.6,5.5c-1,2.4-2.6,4.7-4.7,6.7c-2.1,2-4.9,3.1-8.5,3.1s-6.2-0.7-8.4-2.2c-2.2-1.5-3.3-3.3-3.3-5.5
		c0-0.9-0.5-1.9-1.6-2.9s-2.6-1.5-4.7-1.5c-3.7,0-7.2,1-10.5,2.9c-3.3,2-6.6,4-9.8,6.2v62.4c0,4.7,2.1,8.3,6.4,10.8
		c4.3,2.5,9.4,4.4,15.4,5.6v5.9L904.7,203.7L904.7,203.7z"/>
	<path class="st1" d="M1067.6,79.7l10.9,24.7l-7.3,3.2c-5.7-7.4-11.7-11.9-18-13.7s-13.2-0.9-20.9,2.5c-6.9,3.1-11.8,6.7-14.6,11
		c-2.8,4.2-3.2,8.6-1.2,13.2c1.3,3,4,5,7.9,5.9s8.7,1.3,14.1,1.1c5.5-0.2,11.2-0.6,17.1-1.2c7.2-0.6,14-0.8,20.5-0.5
		s12.3,1.8,17.4,4.6c5.1,2.8,9.2,7.7,12.3,14.7c4.4,9.9,4.2,19.3-0.5,28.2s-13.3,16.1-25.7,21.6c-6.7,2.9-13.9,5.1-21.9,6.6
		s-15,1.9-21.2,1.4l-12.6-28.5l7.8-3.4c5.2,8.1,11.3,13.4,18.5,15.9c7.1,2.5,14.8,1.9,23.1-1.8c7.5-3.3,13.1-7.6,16.6-12.8
		c3.6-5.2,4.3-10,2.3-14.6c-1.3-3-3.6-4.9-6.9-5.7s-7.2-1-11.8-0.7c-4.6,0.3-9.7,0.7-15.2,1.1c-5.1,0.4-10.5,0.6-16.1,0.6
		c-5.6,0-11-0.6-16.2-1.7c-5.3-1.1-10-3.1-14.3-6c-4.3-2.9-7.7-7.1-10.1-12.7c-3.9-8.7-3.4-17.4,1.3-26.1
		c4.7-8.7,12.9-15.6,24.4-20.7C1041.5,79.7,1055,77.6,1067.6,79.7L1067.6,79.7z"/>
</g>
<rect x="475.8" y="91.1" class="st1" width="28.2" height="9.4"/>
</svg>